<?xml version="1.0" standalone="no"?>
<!DOCTYPE svg PUBLIC "-//W3C//DTD SVG 20010904//EN"
 "http://www.w3.org/TR/2001/REC-SVG-20010904/DTD/svg10.dtd">
<svg version="1.0" xmlns="http://www.w3.org/2000/svg"
 width="91.1px" height="48px" viewBox="0 0 1899.000000 878.000000"
 preserveAspectRatio="xMidYMid meet">

<g transform="translate(0.000000,878.000000) scale(0.100000,-0.100000)"
fill="#2d2fc9" stroke="none">
<path d="M10065 8773 c-351 -21 -545 -42 -793 -83 -541 -91 -994 -264 -1285
-491 l-77 -60 0 -315 c0 -269 -2 -314 -15 -314 -22 0 -86 -61 -101 -97 -12
-26 -14 -210 -14 -1002 0 -954 0 -970 -20 -976 -10 -3 -31 -20 -45 -36 -24
-29 -25 -37 -25 -148 0 -105 2 -121 21 -145 46 -58 18 -56 764 -56 743 0 712
-2 765 55 23 24 25 35 28 133 3 120 -10 157 -68 190 l-30 17 0 390 c0 444 4
478 71 615 34 69 58 101 128 170 137 136 155 143 642 239 223 45 412 81 421
81 10 0 21 -20 33 -62 20 -74 64 -123 117 -133 40 -8 484 77 530 101 59 31 83
100 62 180 -8 30 -14 56 -14 58 0 2 14 6 31 10 27 5 65 37 107 89 13 18 18
353 5 359 -5 2 -15 16 -23 33 -20 39 -75 75 -114 75 -17 0 -472 -87 -1011
-193 l-980 -194 -5 71 c-7 86 -27 124 -87 161 l-43 28 0 300 c0 282 1 303 20
343 40 81 125 119 358 158 240 40 497 70 783 91 143 11 183 52 184 185 0 88
-18 127 -75 159 -38 21 -87 24 -245 14z"/>
<path d="M9680 4189 c-41 -5 -115 -20 -163 -34 -285 -81 -470 -264 -562 -555
-55 -177 -55 -172 -55 -1492 0 -806 4 -1243 11 -1295 51 -374 242 -636 539
-739 217 -76 513 -83 739 -18 337 97 537 345 595 736 13 88 16 225 16 837 l0
731 -460 0 -460 0 0 -285 0 -284 158 -3 157 -3 3 -425 c2 -277 -1 -448 -8
-490 -34 -197 -157 -292 -356 -277 -174 13 -267 109 -293 300 -14 99 -15 2310
-1 2413 19 146 79 242 178 287 71 32 227 31 300 -2 68 -30 124 -95 153 -174
21 -57 23 -83 27 -324 l4 -263 299 0 299 0 0 241 c0 276 -14 402 -62 546 -109
330 -345 520 -708 568 -115 16 -234 17 -350 4z"/>
<path d="M666 4103 c-85 -526 -648 -3978 -652 -4000 l-6 -33 296 0 c163 0 296
3 297 8 0 4 26 183 57 397 l58 390 367 3 c202 1 367 -2 367 -6 0 -5 25 -181
55 -392 30 -211 55 -387 55 -392 0 -4 144 -8 321 -8 l321 0 -6 27 c-8 41 -656
4023 -656 4034 0 5 -178 9 -434 9 l-434 0 -6 -37z m424 -688 c0 -15 266 -1905
276 -1962 l6 -33 -291 0 -290 0 5 28 c4 24 274 1971 274 1979 0 2 5 3 10 3 6
0 10 -7 10 -15z"/>
<path d="M2510 2105 l0 -2035 845 0 845 0 0 290 0 290 -525 0 -525 0 0 1745 0
1745 -320 0 -320 0 0 -2035z"/>
<path d="M4440 3850 l0 -290 565 0 c311 0 565 -2 565 -4 0 -2 -265 -657 -590
-1456 l-590 -1452 0 -289 0 -289 935 0 935 0 0 290 0 290 -594 2 -594 3 594
1460 593 1460 1 283 0 282 -910 0 -910 0 0 -290z"/>
<path d="M6796 2177 c-176 -1079 -325 -1995 -332 -2035 l-11 -72 296 2 295 3
58 390 c31 215 57 393 57 398 1 4 165 7 366 7 201 0 365 -3 366 -7 0 -5 26
-183 57 -398 l57 -390 318 -3 c200 -1 317 1 317 7 0 12 -647 3992 -656 4034
l-6 27 -431 0 -432 0 -319 -1963z m734 1250 c0 -1 63 -448 140 -992 77 -544
140 -995 140 -1002 0 -19 -570 -19 -570 0 -1 39 275 1997 282 1997 4 0 8 -1 8
-3z"/>
<path d="M11220 2105 l0 -2035 320 0 320 0 0 915 0 915 345 0 345 0 0 -915 0
-915 315 0 315 0 0 2035 0 2035 -315 0 -315 0 -2 -827 -3 -828 -342 -3 -343
-2 0 830 0 830 -320 0 -320 0 0 -2035z"/>
<path d="M14155 4118 c-9 -38 -655 -4014 -655 -4032 0 -14 29 -16 293 -16
l293 0 57 390 c31 215 59 395 62 400 4 6 149 10 365 10 333 0 359 -1 364 -17
3 -10 28 -180 56 -378 28 -198 53 -370 55 -382 l5 -23 315 0 c281 0 315 2 315
16 0 17 -646 3994 -655 4032 l-5 22 -430 0 -430 0 -5 -22z m559 -1697 l142
-1001 -288 0 c-158 0 -288 3 -288 8 0 16 272 1978 276 1991 2 8 7 11 10 8 4
-3 70 -456 148 -1006z"/>
<path d="M16000 2106 l0 -2036 315 0 315 0 0 870 0 870 167 0 c192 0 251 -12
325 -66 52 -37 87 -96 115 -191 14 -50 17 -145 23 -683 7 -641 9 -668 49 -773
l11 -27 321 0 321 0 -7 23 c-50 157 -48 121 -55 777 -8 675 -12 729 -70 903
-35 104 -66 161 -119 220 -42 47 -137 111 -189 128 -58 18 -58 26 -1 54 201
101 317 289 359 580 13 92 13 538 0 645 -44 361 -208 583 -500 679 -162 53
-176 54 -797 58 l-583 4 0 -2035z m1082 1426 c62 -30 110 -86 139 -158 22 -56
23 -73 27 -352 4 -329 -5 -401 -57 -485 -67 -105 -165 -140 -396 -141 l-160
-1 -3 583 -2 584 202 -4 c188 -3 206 -5 250 -26z"/>
<path d="M18340 2105 l0 -2035 320 0 320 0 0 2035 0 2035 -320 0 -320 0 0
-2035z"/>
</g>
</svg>
